HIERARCHY
ROOT Hips
{
	OFFSET 0.000000 71.427986 0.000000
	CHANNELS 6 Xposition Yposition Zposition Xrotation Yrotation Zrotation
	JOINT Pelvis
	{
		OFFSET 0.000000 0.000000 0.000000
		CHANNELS 3 Xrotation Yrotation Zrotation
		JOINT LeftUpLeg
		{
			OFFSET 6.797100 -2.508499 -1.318700
			CHANNELS 3 Xrotation Yrotation Zrotation
			JOINT LeftLeg
			{
				OFFSET 0.069008 -29.241863 0.690200
				CHANNELS 3 Xrotation Yrotation Zrotation
				JOINT LeftFoot
				{
					OFFSET -0.069008 -29.568123 -0.266800
					CHANNELS 3 Xrotation Yrotation Zrotation
					JOINT LeftToeBase
					{
						OFFSET 3.145500 -8.631000 16.059900
						CHANNELS 3 Xrotation Yrotation Zrotation
						End Site
						{
							OFFSET 0.000000 18.501587 0.000000
						}
					}
				}
			}
			JOINT Left_ShortSleeve
			{
				OFFSET 0.265923 -10.480953 1.153800
				CHANNELS 3 Xrotation Yrotation Zrotation
				End Site
				{
					OFFSET 1.725763 19.823879 0.000000
				}
			}
		}
		JOINT RightUpLeg
		{
			OFFSET -6.797100 -2.508499 -1.318700
			CHANNELS 3 Xrotation Yrotation Zrotation
			JOINT RightLeg
			{
				OFFSET -0.082453 -29.241932 0.688000
				CHANNELS 3 Xrotation Yrotation Zrotation
				JOINT RightFoot
				{
					OFFSET 0.082453 -29.568058 -0.264600
					CHANNELS 3 Xrotation Yrotation Zrotation
					JOINT RightToeBase
					{
						OFFSET -3.115300 -8.682800 16.113400
						CHANNELS 3 Xrotation Yrotation Zrotation
						End Site
						{
							OFFSET 0.000000 18.567114 0.000000
						}
					}
				}
			}
			JOINT Right_ShortSleeve
			{
				OFFSET -0.265923 -10.480953 1.153800
				CHANNELS 3 Xrotation Yrotation Zrotation
				End Site
				{
					OFFSET -1.725766 19.823910 0.000000
				}
			}
		}
	}
	JOINT Spine
	{
		OFFSET 0.000000 13.368103 0.470500
		CHANNELS 3 Xrotation Yrotation Zrotation
		JOINT Spine1
		{
			OFFSET 0.147000 13.837402 0.538800
			CHANNELS 3 Xrotation Yrotation Zrotation
			JOINT Spine2
			{
				OFFSET 0.168000 16.242897 -1.435500
				CHANNELS 3 Xrotation Yrotation Zrotation
				JOINT Neck
				{
					OFFSET 0.217200 18.631500 -1.679100
					CHANNELS 3 Xrotation Yrotation Zrotation
					JOINT Head
					{
						OFFSET 0.000000 6.599396 1.385900
						CHANNELS 3 Xrotation Yrotation Zrotation
						JOINT Hat
						{
							OFFSET -0.532200 27.220596 -10.096100
							CHANNELS 3 Xrotation Yrotation Zrotation
							End Site
							{
								OFFSET 0.000000 22.029861 0.000000
							}
						}
						JOINT HairD
						{
							OFFSET -10.777400 17.437393 -1.325900
							CHANNELS 3 Xrotation Yrotation Zrotation
							JOINT HairD1
							{
								OFFSET -3.290299 -11.051193 1.062200
								CHANNELS 3 Xrotation Yrotation Zrotation
								End Site
								{
									OFFSET 0.000000 11.579437 0.000000
								}
							}
						}
						JOINT HairB
						{
							OFFSET -10.777400 17.437393 1.467900
							CHANNELS 3 Xrotation Yrotation Zrotation
							JOINT HairB1
							{
								OFFSET -1.561200 -12.956299 3.590200
								CHANNELS 3 Xrotation Yrotation Zrotation
								End Site
								{
									OFFSET 0.000000 13.534866 0.000000
								}
							}
						}
						JOINT HairA
						{
							OFFSET 9.713100 17.437393 1.467900
							CHANNELS 3 Xrotation Yrotation Zrotation
							JOINT HairA1
							{
								OFFSET 1.561200 -12.956299 3.590200
								CHANNELS 3 Xrotation Yrotation Zrotation
								End Site
								{
									OFFSET 0.000000 13.534866 0.000000
								}
							}
						}
						JOINT HairC
						{
							OFFSET 9.713100 17.437393 -1.325900
							CHANNELS 3 Xrotation Yrotation Zrotation
							JOINT HairC1
							{
								OFFSET 3.290300 -11.051193 1.062200
								CHANNELS 3 Xrotation Yrotation Zrotation
								End Site
								{
									OFFSET 0.000000 11.579437 0.000000
								}
							}
						}
					}
				}
				JOINT LeftShoulder
				{
					OFFSET 5.101800 15.108002 -2.763700
					CHANNELS 3 Xrotation Yrotation Zrotation
					JOINT LeftArm
					{
						OFFSET 9.825497 2.506317 -1.597400
						CHANNELS 3 Xrotation Yrotation Zrotation
						JOINT LeftForeArm
						{
							OFFSET 21.966244 0.000000 0.000000
							CHANNELS 3 Xrotation Yrotation Zrotation
							JOINT LeftHand
							{
								OFFSET 33.879036 0.000000 0.000000
								CHANNELS 3 Xrotation Yrotation Zrotation
								JOINT LeftHandThumb1
								{
									OFFSET 6.715286 -2.359680 3.363841
									CHANNELS 3 Xrotation Yrotation Zrotation
									JOINT LeftHandThumb2
									{
										OFFSET 2.507072 -1.447464 1.447461
										CHANNELS 3 Xrotation Yrotation Zrotation
										JOINT LeftHandThumb3
										{
											OFFSET 2.898338 -1.673355 1.673357
											CHANNELS 3 Xrotation Yrotation Zrotation
											End Site
											{
												OFFSET -0.295959 3.727692 -0.131651
											}
										}
									}
								}
								JOINT LeftHandIndex1
								{
									OFFSET 14.190811 -0.254547 3.840278
									CHANNELS 3 Xrotation Yrotation Zrotation
									JOINT LeftHandIndex2
									{
										OFFSET 3.551727 0.000000 -0.000000
										CHANNELS 3 Xrotation Yrotation Zrotation
										JOINT LeftHandIndex3
										{
											OFFSET 2.894196 0.000000 0.000000
											CHANNELS 3 Xrotation Yrotation Zrotation
											End Site
											{
												OFFSET -1.000603 2.690872 0.366626
											}
										}
									}
								}
								JOINT LeftHandMiddle1
								{
									OFFSET 13.776489 0.000000 0.000000
									CHANNELS 3 Xrotation Yrotation Zrotation
									JOINT LeftHandMiddle2
									{
										OFFSET 3.438232 0.000000 0.000000
										CHANNELS 3 Xrotation Yrotation Zrotation
										JOINT LeftHandMiddle3
										{
											OFFSET 3.691551 0.000000 0.000000
											CHANNELS 3 Xrotation Yrotation Zrotation
											End Site
											{
												OFFSET -1.082298 3.499527 0.457670
											}
										}
									}
								}
								JOINT LeftHandRing1
								{
									OFFSET 13.966164 -0.268127 -3.067488
									CHANNELS 3 Xrotation Yrotation Zrotation
									JOINT LeftHandRing2
									{
										OFFSET 3.162567 0.000000 0.000000
										CHANNELS 3 Xrotation Yrotation Zrotation
										JOINT LeftHandRing3
										{
											OFFSET 3.324348 0.000000 0.000000
											CHANNELS 3 Xrotation Yrotation Zrotation
											End Site
											{
												OFFSET -0.861900 3.184998 0.405154
											}
										}
									}
								}
								JOINT LeftHandPinky1
								{
									OFFSET 13.131393 -0.168503 -5.746925
									CHANNELS 3 Xrotation Yrotation Zrotation
									JOINT LeftHandPinky2
									{
										OFFSET 2.849182 0.000000 0.000000
										CHANNELS 3 Xrotation Yrotation Zrotation
										JOINT LeftHandPinky3
										{
											OFFSET 2.805038 0.000000 0.000000
											CHANNELS 3 Xrotation Yrotation Zrotation
											End Site
											{
												OFFSET -0.882500 2.642609 0.325652
											}
										}
									}
								}
							}
							JOINT Left_Sleeve
							{
								OFFSET 6.592125 -0.646545 0.805568
								CHANNELS 3 Xrotation Yrotation Zrotation
								End Site
								{
									OFFSET -0.000179 20.275787 -0.000000
								}
							}
						}
					}
				}
				JOINT RightShoulder
				{
					OFFSET -5.731700 15.108002 -2.763700
					CHANNELS 3 Xrotation Yrotation Zrotation
					JOINT RightArm
					{
						OFFSET -9.825497 2.506317 -1.597400
						CHANNELS 3 Xrotation Yrotation Zrotation
						JOINT RightForeArm
						{
							OFFSET -21.966242 0.000000 0.000000
							CHANNELS 3 Xrotation Yrotation Zrotation
							JOINT RightHand
							{
								OFFSET -33.879032 0.000000 0.000000
								CHANNELS 3 Xrotation Yrotation Zrotation
								JOINT RightHandThumb1
								{
									OFFSET -6.715286 -2.359680 3.363841
									CHANNELS 3 Xrotation Yrotation Zrotation
									JOINT RightHandThumb2
									{
										OFFSET -2.507072 -1.447464 1.447461
										CHANNELS 3 Xrotation Yrotation Zrotation
										JOINT RightHandThumb3
										{
											OFFSET -2.898338 -1.673355 1.673357
											CHANNELS 3 Xrotation Yrotation Zrotation
											End Site
											{
												OFFSET 0.295959 3.727692 -0.131651
											}
										}
									}
								}
								JOINT RightHandIndex1
								{
									OFFSET -14.190811 -0.254547 3.840278
									CHANNELS 3 Xrotation Yrotation Zrotation
									JOINT RightHandIndex2
									{
										OFFSET -3.551727 0.000000 -0.000000
										CHANNELS 3 Xrotation Yrotation Zrotation
										JOINT RightHandIndex3
										{
											OFFSET -2.894196 0.000000 0.000000
											CHANNELS 3 Xrotation Yrotation Zrotation
											End Site
											{
												OFFSET 1.000603 2.690872 0.366626
											}
										}
									}
								}
								JOINT RightHandMiddle1
								{
									OFFSET -13.776489 0.000000 0.000000
									CHANNELS 3 Xrotation Yrotation Zrotation
									JOINT RightHandMiddle2
									{
										OFFSET -3.438232 0.000000 0.000000
										CHANNELS 3 Xrotation Yrotation Zrotation
										JOINT RightHandMiddle3
										{
											OFFSET -3.691551 0.000000 0.000000
											CHANNELS 3 Xrotation Yrotation Zrotation
											End Site
											{
												OFFSET 1.082298 3.499527 0.457670
											}
										}
									}
								}
								JOINT RightHandRing1
								{
									OFFSET -13.966164 -0.268127 -3.067488
									CHANNELS 3 Xrotation Yrotation Zrotation
									JOINT RightHandRing2
									{
										OFFSET -3.162567 0.000000 0.000000
										CHANNELS 3 Xrotation Yrotation Zrotation
										JOINT RightHandRing3
										{
											OFFSET -3.324348 0.000000 0.000000
											CHANNELS 3 Xrotation Yrotation Zrotation
											End Site
											{
												OFFSET 0.861900 3.184998 0.405154
											}
										}
									}
								}
								JOINT RightHandPinky1
								{
									OFFSET -13.131393 -0.168503 -5.746925
									CHANNELS 3 Xrotation Yrotation Zrotation
									JOINT RightHandPinky2
									{
										OFFSET -2.849182 0.000000 0.000000
										CHANNELS 3 Xrotation Yrotation Zrotation
										JOINT RightHandPinky3
										{
											OFFSET -2.805038 0.000000 0.000000
											CHANNELS 3 Xrotation Yrotation Zrotation
											End Site
											{
												OFFSET 0.882500 2.642609 0.325652
											}
										}
									}
								}
							}
							JOINT Right_Sleeve
							{
								OFFSET -6.592125 -0.646545 0.805568
								CHANNELS 3 Xrotation Yrotation Zrotation
								End Site
								{
									OFFSET 0.000179 20.275787 -0.000000
								}
							}
						}
					}
				}
				JOINT Bind_Right_JacketString
				{
					OFFSET -3.534800 11.969597 7.200700
					CHANNELS 3 Xrotation Yrotation Zrotation
					JOINT Bind_Right_JacketString1
					{
						OFFSET -0.319900 -6.102600 2.794100
						CHANNELS 3 Xrotation Yrotation Zrotation
						End Site
						{
							OFFSET 0.000000 6.719452 0.000000
						}
					}
				}
				JOINT Bind_Left_JacketString
				{
					OFFSET 2.904800 11.969597 7.200700
					CHANNELS 3 Xrotation Yrotation Zrotation
					JOINT Bind_Left_JacketString1
					{
						OFFSET 0.364800 -5.904503 3.186800
						CHANNELS 3 Xrotation Yrotation Zrotation
						End Site
						{
							OFFSET 0.000000 6.719513 0.000000
						}
					}
				}
				JOINT HairE
				{
					OFFSET 5.915200 17.612701 -11.592200
					CHANNELS 3 Xrotation Yrotation Zrotation
					JOINT HairE1
					{
						OFFSET 0.289200 -7.171898 -1.284500
						CHANNELS 3 Xrotation Yrotation Zrotation
						End Site
						{
							OFFSET 0.000000 7.291756 0.000000
						}
					}
				}
				JOINT HairF
				{
					OFFSET -0.864800 17.612701 -11.592200
					CHANNELS 3 Xrotation Yrotation Zrotation
					JOINT HairF1
					{
						OFFSET 0.000000 -14.087097 -2.127501
						CHANNELS 3 Xrotation Yrotation Zrotation
						End Site
						{
							OFFSET 0.000000 14.246841 0.000000
						}
					}
				}
				JOINT HairG
				{
					OFFSET -8.087700 17.612701 -11.592200
					CHANNELS 3 Xrotation Yrotation Zrotation
					JOINT HairG1
					{
						OFFSET -0.293600 -6.081398 -0.910100
						CHANNELS 3 Xrotation Yrotation Zrotation
						End Site
						{
							OFFSET 0.000000 6.156120 0.000000
						}
					}
				}
			}
		}
	}
	JOINT Pouch
	{
		OFFSET 0.000000 4.394501 10.847300
		CHANNELS 3 Xrotation Yrotation Zrotation
		End Site
		{
			OFFSET 0.000000 21.880577 0.000000
		}
	}
	JOINT Bag
	{
		OFFSET -13.229000 4.813004 -0.593300
		CHANNELS 3 Xrotation Yrotation Zrotation
		End Site
		{
			OFFSET 0.000000 21.880577 0.000000
		}
	}
	JOINT OccupyGuyFacialAnim_Joint
	{
		OFFSET 1.000000 -70.206398 -1.655000
		CHANNELS 3 Xrotation Yrotation Zrotation
		End Site
		{
			OFFSET 0.000000 21.880577 0.000000
		}
	}
}
MOTION
Frames: 4
Frame Time: 0.033333
-28.991375 58.891121 -126.711357 -1.623246 48.047338 -0.684710 -0.000000 0.000000 -0.000000 -53.857182 3.104175 -6.147577 47.153560 -7.934324 4.867751 2.038396 0.893191 2.057466 -0.000000 0.000000 0.000000 0.000004 0.000000 -0.000001 -64.980186 -13.341272 -14.330770 84.593559 -2.964085 5.470520 -16.574465 -5.238761 -0.144698 0.000000 -0.000001 0.000000 -0.000001 -0.000000 -0.000000 30.198367 7.450155 9.753953 3.416115 0.429751 4.372553 3.445015 0.155778 4.485556 1.248759 -1.388138 -3.072761 -31.676631 -26.878352 8.218546 -0.000001 0.000003 -0.000001 -0.000001 0.000003 -0.000001 -0.000001 0.000003 -0.000001 -0.000001 0.000003 -0.000000 -0.000002 -0.000001 0.000001 -0.000001 0.000003 -0.000000 -0.000002 -0.000001 0.000001 -0.000001 0.000003 -0.000001 -0.000001 0.000003 -0.000001 -5.508618 -29.662839 -19.418913 -90.593594 -62.738245 -74.096447 -0.000033 -56.679553 -0.000032 44.675892 -25.861509 12.772244 1.849113 -3.315205 3.479890 19.536093 21.921909 -5.532787 0.000000 -0.000000 0.000002 1.238214 0.059701 -25.073918 0.757284 2.882752 -29.431944 0.000001 -0.000001 -0.000000 -1.617533 2.312241 -38.759698 0.636674 2.657939 -26.936912 0.000001 -0.000001 -0.000001 2.624595 7.413792 -42.615794 0.901444 3.124161 -32.182762 0.000001 0.000003 -0.000005 0.941088 13.238022 -45.915069 1.023531 3.309952 -34.358006 -0.000001 -0.000001 0.000001 0.000002 -0.000002 0.000001 -1.492658 33.357715 21.508162 29.378648 -8.559152 41.322282 0.000005 0.000393 -0.000007 46.092927 8.641555 47.512203 -14.092456 -11.884122 -25.355575 16.828741 -11.606429 16.319794 -0.000001 -0.000001 -0.000000 1.769441 0.881213 0.494903 0.858357 -2.696076 35.314448 0.000000 -0.000001 0.000000 -0.480514 1.066056 8.332016 0.496140 -2.093507 26.662349 0.000001 0.000005 -0.000000 -1.361685 1.076123 19.033504 0.454436 -2.008349 25.497011 -0.000002 -0.000002 0.000001 -7.462964 -1.256170 19.545490 0.666914 -2.403419 31.013065 -0.000001 -0.000001 0.000004 0.000001 0.000004 0.000001 0.000003 0.000002 0.000001 0.000003 -0.000001 0.000001 0.000003 0.000002 -0.000000 0.000003 0.000002 -0.000000 0.000003 0.000002 0.000001 0.000003 -0.000001 0.000002 0.000003 0.000002 -0.000000 0.000003 0.000002 -0.000000 0.000003 0.000002 0.000001 0.000003 -0.000001 0.000002 -0.000000 0.000000 -0.000000 -0.000000 0.000000 -0.000000 -0.000000 0.000000 -0.000000 
-31.141445 59.377396 -131.821320 -2.058504 46.039512 0.327672 0.000000 -0.000001 -0.000000 -52.726007 3.926607 -5.609336 40.535250 -8.087723 3.349241 2.210422 2.296121 1.485833 0.000001 -0.000002 -0.000001 -0.000002 0.000000 -0.000001 -56.751915 -15.553743 -11.677915 89.924338 -0.836679 5.267765 -11.154217 -0.629319 1.872639 -0.000002 -0.000003 0.000000 0.000002 -0.000001 -0.000003 28.591425 8.573860 9.477735 3.242623 0.873761 4.357271 3.282319 0.604318 4.417297 3.815525 -1.672825 -2.974627 -21.417306 -27.341433 5.189273 0.000001 0.000000 -0.000000 0.000001 0.000000 -0.000000 0.000001 0.000000 0.000000 0.000001 0.000000 0.000001 0.000001 -0.000002 0.000001 0.000001 0.000000 0.000001 0.000001 -0.000002 0.000001 0.000001 0.000000 -0.000000 0.000001 0.000000 -0.000000 -6.388168 -31.310622 -19.230394 -73.731728 -62.127066 -62.947911 0.000056 -69.577675 0.000077 46.536893 -29.574439 19.802366 0.214071 -2.270070 8.053737 20.063913 22.986527 -6.250119 -0.000002 0.000003 -0.000000 0.263907 0.999607 -17.665931 0.430339 2.205701 -22.076992 -0.000000 0.000001 0.000002 -2.209250 0.154353 -31.003212 0.573072 2.528995 -25.531406 -0.000000 -0.000001 0.000002 2.381141 7.361378 -37.341857 0.843917 3.030962 -31.111242 0.000002 -0.000001 0.000003 1.444575 11.520557 -38.727156 1.264475 3.636809 -38.333262 0.000001 -0.000000 0.000005 0.000000 -0.000000 0.000001 -1.519497 33.405222 21.535452 26.312088 -7.235174 36.212901 0.000022 0.000173 -0.000009 46.258115 8.484801 42.495706 -14.005502 -10.786581 -24.983731 25.016746 -23.695038 25.873675 -0.000000 -0.000001 -0.000000 1.780076 2.736184 3.536944 0.914966 -2.774178 36.500664 0.000000 0.000002 0.000001 -0.793900 1.009773 12.658033 0.571930 -2.237965 28.667663 0.000001 0.000004 -0.000004 -1.953127 -0.381331 31.941072 0.516915 -2.134349 27.225667 -0.000001 -0.000003 0.000002 -9.260435 -3.294860 37.975077 0.742113 -2.524179 32.762228 -0.000001 0.000003 -0.000006 0.000002 -0.000001 0.000000 -0.000003 -0.000001 -0.000001 -0.000002 -0.000001 -0.000001 -0.000003 -0.000001 -0.000000 -0.000003 -0.000001 -0.000000 -0.000003 -0.000001 -0.000001 -0.000002 -0.000001 -0.000001 -0.000003 -0.000001 -0.000000 -0.000003 -0.000001 -0.000000 -0.000003 -0.000001 -0.000001 -0.000002 -0.000001 -0.000001 0.000000 -0.000001 -0.000000 0.000000 -0.000001 -0.000000 0.000000 -0.000001 -0.000000 
-33.166248 60.247780 -136.907425 -4.036979 44.372126 3.969262 0.000000 0.000003 0.000000 -51.248094 3.001069 -5.595984 38.624880 -5.567969 0.855662 -3.912386 4.688394 -1.582211 -0.000001 -0.000003 -0.000000 -0.000002 0.000001 0.000001 -40.356518 -18.045674 -6.616120 87.129260 0.816842 5.355506 -18.194412 1.818214 -13.705803 -0.000002 0.000000 -0.000001 0.000000 -0.000002 -0.000003 26.803110 9.726340 9.062186 3.110012 1.359117 4.135739 3.156080 1.138212 4.135574 6.004896 -1.908329 -2.524367 -9.815135 -28.312273 0.157127 0.000001 -0.000001 0.000001 0.000001 -0.000001 0.000001 0.000001 -0.000001 0.000001 0.000001 -0.000001 -0.000000 -0.000003 0.000002 -0.000002 0.000001 -0.000001 -0.000000 -0.000003 0.000002 -0.000002 0.000001 -0.000001 0.000001 0.000001 -0.000001 0.000001 -7.023968 -32.623862 -18.796612 -55.879072 -57.819498 -53.935497 -0.000096 -77.653309 -0.000079 46.024383 -29.399112 24.736596 -0.824917 -1.648938 11.139221 22.166897 26.576970 -8.927520 0.000001 0.000005 -0.000000 -0.558212 1.272561 -18.188403 0.388154 2.098792 -20.953735 0.000002 -0.000004 0.000001 -2.222384 0.571688 -33.194678 0.585238 2.554291 -25.805676 0.000001 0.000001 0.000004 1.810388 6.531747 -43.253662 0.889136 3.104570 -31.956242 -0.000002 -0.000000 -0.000004 0.630091 9.579837 -42.054653 1.375538 3.772763 -40.051905 -0.000002 -0.000002 0.000004 0.000002 -0.000001 -0.000001 -1.096570 29.607057 21.518393 21.033007 -4.025071 30.573399 0.000014 0.000156 -0.000006 39.971739 6.535712 29.785929 -13.895377 -9.234000 -24.463019 22.195296 -19.074273 22.063131 -0.000002 0.000000 0.000000 1.120978 2.164446 5.818409 0.803718 -2.617336 34.135585 -0.000001 0.000001 0.000000 -0.711343 0.083036 14.546718 0.556973 -2.210428 28.282384 -0.000001 0.000001 -0.000001 -1.143457 -1.291959 28.745206 0.469812 -2.040253 25.932287 0.000001 -0.000001 -0.000000 -6.353041 -5.497986 31.706411 0.771131 -2.568657 33.415358 -0.000000 -0.000001 -0.000001 0.000000 0.000000 0.000001 0.000002 0.000001 -0.000002 0.000003 0.000000 -0.000003 0.000002 0.000001 -0.000000 0.000002 0.000001 -0.000000 0.000002 0.000001 -0.000002 0.000003 0.000000 -0.000003 0.000002 0.000001 -0.000000 0.000002 0.000001 -0.000000 0.000002 0.000001 -0.000002 0.000003 0.000000 -0.000003 0.000000 0.000003 0.000000 0.000000 0.000003 0.000000 0.000000 0.000003 0.000000 
-35.381611 61.022583 -141.985962 -2.446784 43.130288 4.122583 -0.000000 -0.000002 -0.000000 -50.856205 1.596514 -3.703647 36.818155 -6.551916 0.054020 -3.150403 11.488006 -4.427077 -0.000001 0.000000 -0.000000 0.000001 0.000000 -0.000001 -31.706496 -17.352640 -4.971919 74.520308 -1.568028 5.065425 -32.800641 0.186662 -10.345035 0.000000 -0.000001 0.000000 -0.000001 0.000001 -0.000000 25.188766 10.572891 8.802067 3.032883 1.679581 3.824810 3.082509 1.508698 3.813106 7.392426 -2.220342 -1.815543 -3.892716 -29.507179 -3.865482 -0.000002 0.000001 -0.000000 -0.000002 0.000001 -0.000000 -0.000002 0.000001 -0.000001 -0.000002 0.000001 -0.000000 -0.000004 0.000001 -0.000001 -0.000002 0.000001 -0.000000 -0.000004 0.000001 -0.000001 -0.000002 0.000001 -0.000000 -0.000002 0.000001 -0.000000 -6.372468 -31.505354 -17.707330 -48.001436 -53.234706 -56.117183 0.000011 -77.419566 -0.000003 48.444845 -30.538305 28.972344 -0.976572 -1.561159 11.602460 26.090885 31.513120 -13.448789 0.000001 0.000001 -0.000004 -0.288576 1.504952 -19.718678 0.393801 2.113458 -21.107441 0.000002 -0.000001 -0.000000 0.819099 5.289447 -35.332845 0.579675 2.542750 -25.680517 0.000003 -0.000004 0.000000 3.619585 8.409330 -43.648747 0.756600 2.881543 -29.418393 -0.000001 -0.000002 0.000004 5.762131 11.057655 -47.458671 1.238850 3.604231 -37.927603 -0.000003 -0.000001 0.000001 -0.000001 0.000001 -0.000001 -0.313878 24.181267 20.472158 14.290067 1.481572 26.279083 0.000004 0.000021 -0.000009 32.829980 5.895600 12.841224 -13.787164 -7.453086 -23.872348 17.769738 -13.127566 17.362909 0.000001 -0.000003 0.000002 1.205021 1.974308 -0.645803 0.595367 -2.280285 29.262416 -0.000002 0.000001 0.000006 -0.259854 -1.118965 10.924287 0.551417 -2.200063 28.138107 0.000001 -0.000001 0.000004 -0.254005 -2.397804 21.503075 0.402917 -1.896600 23.984757 0.000002 -0.000003 0.000001 -4.872242 -7.766733 24.623716 0.742327 -2.524536 32.767279 -0.000001 0.000001 0.000002 -0.000001 -0.000002 0.000000 0.000004 -0.000001 -0.000000 0.000002 0.000003 -0.000003 0.000004 -0.000001 0.000000 0.000004 -0.000001 0.000000 0.000004 -0.000001 -0.000000 0.000002 0.000003 -0.000003 0.000004 -0.000001 0.000000 0.000004 -0.000001 0.000000 0.000004 -0.000001 -0.000000 0.000002 0.000003 -0.000003 -0.000000 -0.000002 -0.000000 -0.000000 -0.000002 -0.000000 -0.000000 -0.000002 -0.000000 
